<?xml version="1.0" encoding="UTF-8"?>
<svg width="130px" height="130px" viewBox="0 0 130 130" version="1.1" xmlns="http://www.w3.org/2000/svg" xmlns:xlink="http://www.w3.org/1999/xlink">
    <!-- Generator: Sketch 62 (91390) - https://sketch.com -->
    <title>mojl-x-square</title>
    <desc>Created with Sketch.</desc>
    <g id="Page-1" stroke="none" stroke-width="1" fill="none" fill-rule="evenodd">
        <g id="bounds" transform="translate(-210.000000, -204.000000)">
            <rect id="bounding-box-square" x="210" y="204" width="130" height="130"></rect>
        </g>
        <g id="common-parts" transform="translate(11.000000, -172.000000)">
            <g id="mojl-keys" transform="translate(0.000000, 183.000000)" stroke="#979797">
                <g>
                    <g id="connector-lines" transform="translate(12.000000, 12.000000)" stroke-linecap="square">
                        <line x1="47.5" y1="0.5" x2="13.5" y2="56.5" id="Line"></line>
                        <line x1="47.5" y1="0.5" x2="0.5" y2="28.5" id="Line"></line>
                        <line x1="56.5" y1="28.5" x2="0.5" y2="28.5" id="Line"></line>
                    </g>
                    <g id="keys-mojl" fill="#D8D8D8" stroke-linejoin="round">
                        <rect id="Rectangle" x="47" y="0" width="25" height="25"></rect>
                        <rect id="Rectangle" x="0" y="28" width="25" height="25"></rect>
                        <rect id="Rectangle" x="56" y="28" width="25" height="25"></rect>
                        <rect id="Rectangle" x="13" y="56" width="25" height="25"></rect>
                    </g>
                </g>
            </g>
            <g id="mojl-wordmark" transform="translate(46.000000, 230.000000)" fill="#979797" fill-rule="nonzero">
                <path d="M7.12646484,34 L7.12646484,22.7890625 C7.12646484,21.7750651 7.25748698,21.0117188 7.51953125,20.4990234 C7.99804688,19.5989583 8.93229167,19.1489258 10.3222656,19.1489258 C11.5185547,19.1489258 12.3217773,19.5989583 12.7319336,20.4990234 C12.9597982,21.0003255 13.0737305,21.8035482 13.0737305,22.9086914 L13.0737305,22.9086914 L13.0737305,34 L17.9785156,34 L17.9785156,22.9086914 C17.9785156,22.0769857 18.1095378,21.3649089 18.371582,20.7724609 C18.8842773,19.6559245 19.8128255,19.0976562 21.1572266,19.0976562 C22.3193359,19.0976562 23.116862,19.530599 23.5498047,20.3964844 C23.7776693,20.8522135 23.8916016,21.4332682 23.8916016,22.1396484 L23.8916016,22.1396484 L23.8916016,34 L28.8818359,34 L28.9160156,22.2592773 C28.9160156,21.0515951 28.8590495,20.1344401 28.7451172,19.5078125 C28.5628255,18.5621745 28.2096354,17.7646484 27.6855469,17.1152344 C27.0361328,16.3177083 26.3126628,15.7594401 25.5151367,15.4404297 C24.7176107,15.1214193 23.9086914,14.9619141 23.0883789,14.9619141 C21.8579102,14.9619141 20.7413737,15.2182617 19.7387695,15.730957 C18.7931315,16.2436523 18.0013021,17.046875 17.3632812,18.140625 C16.9986979,17.2291667 16.4632161,16.4829102 15.7568359,15.9018555 C14.8795573,15.2752279 13.7288411,14.9619141 12.3046875,14.9619141 C10.8007812,14.9619141 9.57600911,15.3264974 8.63037109,16.0556641 C8.09488932,16.4658203 7.52522786,17.1551107 6.92138672,18.1235352 L6.92138672,18.1235352 L6.92138672,15.40625 L2.1875,15.40625 L2.1875,34 L7.12646484,34 Z M39.9922539,34.6494141 C43.1937513,34.6494141 45.5806328,33.6781413 47.1528984,31.7355957 C48.7251641,29.7930501 49.5112969,27.4545898 49.5112969,24.7202148 C49.5112969,22.0314128 48.7251641,19.7014974 47.1528984,17.7304688 C45.5806328,15.7594401 43.1937513,14.7739258 39.9922539,14.7739258 C36.7907565,14.7739258 34.403875,15.7594401 32.8316094,17.7304688 C31.2593438,19.7014974 30.4732109,22.0314128 30.4732109,24.7202148 C30.4732109,27.4545898 31.2593438,29.7930501 32.8316094,31.7355957 C34.403875,33.6781413 36.7907565,34.6494141 39.9922539,34.6494141 Z M39.9751641,30.5649414 C38.5510104,30.5649414 37.4544121,30.0579427 36.6853691,29.0439453 C35.9163262,28.0299479 35.5318047,26.5887044 35.5318047,24.7202148 C35.5318047,22.8517253 35.9163262,21.4133301 36.6853691,20.4050293 C37.4544121,19.3967285 38.5510104,18.8925781 39.9751641,18.8925781 C41.3993177,18.8925781 42.4930677,19.3967285 43.2564141,20.4050293 C44.0197604,21.4133301 44.4014336,22.8517253 44.4014336,24.7202148 C44.4014336,26.5887044 44.0197604,28.0299479 43.2564141,29.0439453 C42.4930677,30.0579427 41.3993177,30.5649414 39.9751641,30.5649414 Z M56.3150742,13.1503906 L56.3150742,8.65576172 L51.4444688,8.65576172 L51.4444688,13.1503906 L56.3150742,13.1503906 Z M50.8463242,41.5195312 C53.0110378,41.5195312 54.4636745,41.0694987 55.2042344,40.1694336 C55.9447943,39.2693685 56.3150742,37.8793945 56.3150742,35.9995117 L56.3150742,35.9995117 L56.3150742,15.4575195 L51.4444688,15.4575195 L51.4444688,35.9140625 C51.4444688,36.586263 51.3219915,37.0391439 51.0770371,37.2727051 C50.8320827,37.5062663 50.4703477,37.6230469 49.991832,37.6230469 C49.9006862,37.6230469 49.7981471,37.6201986 49.6842148,37.614502 C49.5702826,37.6088053 49.3765977,37.5945638 49.1031602,37.5717773 L49.1031602,37.5717773 L49.1031602,41.4682617 C49.5361029,41.4796549 49.8978379,41.4910482 50.1883652,41.5024414 C50.4788926,41.5138346 50.6982122,41.5195312 50.8463242,41.5195312 Z M64.1442422,34 L64.1442422,8.80957031 L59.2736367,8.80957031 L59.2736367,34 L64.1442422,34 Z" id="mojl-wordmark-outlines"></path>
            </g>
        </g>
        <g id="mojl" transform="translate(-63.000000, -153.000000)" fill="#979797" fill-rule="nonzero">
            <g id="vanilla-bundler" transform="translate(78.000000, 253.000000)">
                <path d="M4.37988281,15 L7.33886719,7.15576172 L5.89599609,7.15576172 L3.70605469,13.5424805 L1.61132812,7.15576172 L0.0805664062,7.15576172 L2.97363281,15 L4.37988281,15 Z M10.5761719,15.2636719 C11.1816406,15.2636719 11.7358398,15.1342773 12.2387695,14.8754883 C12.7416992,14.6166992 13.1274414,14.3115234 13.3959961,13.9599609 C13.4399414,14.2724609 13.515625,14.5141602 13.6230469,14.6850586 C13.828125,15.0073242 14.1577148,15.168457 14.6118164,15.168457 C14.7973633,15.168457 14.9438477,15.1611328 15.0512695,15.1464844 C15.1586914,15.1318359 15.3149414,15.0952148 15.5200195,15.0366211 L15.5200195,15.0366211 L15.5200195,14.0625 C15.4370117,14.0771484 15.3588867,14.0881348 15.2856445,14.095459 C15.2124023,14.1027832 15.1464844,14.1064453 15.0878906,14.1064453 C14.9072266,14.1064453 14.7888184,14.0649414 14.732666,13.9819336 C14.6765137,13.8989258 14.6484375,13.7890625 14.6484375,13.6523438 L14.6484375,13.6523438 L14.6484375,9.13330078 C14.6484375,8.39111328 14.362793,7.84423828 13.7915039,7.49267578 C13.215332,7.14111328 12.4658203,6.96533203 11.5429688,6.96533203 C10.7470703,6.96533203 10.0476074,7.15454102 9.44458008,7.53295898 C8.84155273,7.91137695 8.52783203,8.58398438 8.50341797,9.55078125 L8.50341797,9.55078125 L9.73388672,9.55078125 C9.78271484,9.14550781 9.88769531,8.84033203 10.0488281,8.63525391 C10.3369141,8.26416016 10.8251953,8.07861328 11.5136719,8.07861328 C12.109375,8.07861328 12.5671387,8.17993164 12.8869629,8.38256836 C13.2067871,8.58520508 13.3666992,8.91113281 13.3666992,9.36035156 C13.3666992,9.58007812 13.3374023,9.74853516 13.2788086,9.86572266 C13.1762695,10.0805664 12.9736328,10.2075195 12.6708984,10.246582 L12.6708984,10.246582 L10.5688477,10.5102539 C9.83154297,10.6030273 9.23583984,10.8496094 8.78173828,11.25 C8.32763672,11.6503906 8.10058594,12.2143555 8.10058594,12.9418945 C8.10058594,13.605957 8.33129883,14.1589355 8.79272461,14.6008301 C9.25415039,15.0427246 9.84863281,15.2636719 10.5761719,15.2636719 Z M10.8837891,14.1430664 C10.5029297,14.1430664 10.1733398,14.0332031 9.89501953,13.8134766 C9.61669922,13.59375 9.47753906,13.293457 9.47753906,12.9125977 C9.47753906,12.409668 9.68017578,12.043457 10.0854492,11.8139648 C10.324707,11.6772461 10.6835938,11.5771484 11.1621094,11.5136719 L11.1621094,11.5136719 L11.9604492,11.4111328 C12.2045898,11.3818359 12.4536133,11.3330078 12.7075195,11.2646484 C12.9614258,11.1962891 13.1689453,11.1108398 13.3300781,11.0083008 L13.3300781,11.0083008 L13.3300781,12.0703125 C13.3300781,12.8808594 12.9638672,13.4643555 12.2314453,13.8208008 C11.796875,14.0356445 11.3476562,14.1430664 10.8837891,14.1430664 Z M18.1274414,15 L18.1274414,10.8911133 C18.1274414,10.378418 18.1604004,9.98413086 18.2263184,9.70825195 C18.2922363,9.43237305 18.4350586,9.16503906 18.6547852,8.90625 C18.9282227,8.58398438 19.2456055,8.36914062 19.6069336,8.26171875 C19.8071289,8.19824219 20.0634766,8.16650391 20.3759766,8.16650391 C20.9912109,8.16650391 21.4160156,8.41064453 21.6503906,8.89892578 C21.7919922,9.19189453 21.862793,9.57763672 21.862793,10.0561523 L21.862793,10.0561523 L21.862793,15 L23.203125,15 L23.203125,9.96826172 C23.203125,9.17724609 23.0957031,8.56933594 22.8808594,8.14453125 C22.4902344,7.36816406 21.7382812,6.97998047 20.625,6.97998047 C20.1171875,6.97998047 19.6557617,7.08007812 19.2407227,7.28027344 C18.8256836,7.48046875 18.4326172,7.81005859 18.0615234,8.26904297 L18.0615234,8.26904297 L18.0615234,7.15576172 L16.809082,7.15576172 L16.809082,15 L18.1274414,15 Z M26.4916992,5.73486328 L26.4916992,4.24072266 L25.1513672,4.24072266 L25.1513672,5.73486328 L26.4916992,5.73486328 Z M26.4916992,15 L26.4916992,7.19238281 L25.1513672,7.19238281 L25.1513672,15 L26.4916992,15 Z M29.8388672,15 L29.8388672,4.24072266 L28.5205078,4.24072266 L28.5205078,15 L29.8388672,15 Z M33.1713867,15 L33.1713867,4.24072266 L31.8530273,4.24072266 L31.8530273,15 L33.1713867,15 Z M37.2583008,15.2636719 C37.8637695,15.2636719 38.4179688,15.1342773 38.9208984,14.8754883 C39.4238281,14.6166992 39.8095703,14.3115234 40.078125,13.9599609 C40.1220703,14.2724609 40.1977539,14.5141602 40.3051758,14.6850586 C40.5102539,15.0073242 40.8398438,15.168457 41.2939453,15.168457 C41.4794922,15.168457 41.6259766,15.1611328 41.7333984,15.1464844 C41.8408203,15.1318359 41.9970703,15.0952148 42.2021484,15.0366211 L42.2021484,15.0366211 L42.2021484,14.0625 C42.1191406,14.0771484 42.0410156,14.0881348 41.9677734,14.095459 C41.8945312,14.1027832 41.8286133,14.1064453 41.7700195,14.1064453 C41.5893555,14.1064453 41.4709473,14.0649414 41.4147949,13.9819336 C41.3586426,13.8989258 41.3305664,13.7890625 41.3305664,13.6523438 L41.3305664,13.6523438 L41.3305664,9.13330078 C41.3305664,8.39111328 41.0449219,7.84423828 40.4736328,7.49267578 C39.8974609,7.14111328 39.1479492,6.96533203 38.2250977,6.96533203 C37.4291992,6.96533203 36.7297363,7.15454102 36.126709,7.53295898 C35.5236816,7.91137695 35.2099609,8.58398438 35.1855469,9.55078125 L35.1855469,9.55078125 L36.4160156,9.55078125 C36.4648438,9.14550781 36.5698242,8.84033203 36.730957,8.63525391 C37.019043,8.26416016 37.5073242,8.07861328 38.1958008,8.07861328 C38.7915039,8.07861328 39.2492676,8.17993164 39.5690918,8.38256836 C39.888916,8.58520508 40.0488281,8.91113281 40.0488281,9.36035156 C40.0488281,9.58007812 40.0195312,9.74853516 39.9609375,9.86572266 C39.8583984,10.0805664 39.6557617,10.2075195 39.3530273,10.246582 L39.3530273,10.246582 L37.2509766,10.5102539 C36.5136719,10.6030273 35.9179688,10.8496094 35.4638672,11.25 C35.0097656,11.6503906 34.7827148,12.2143555 34.7827148,12.9418945 C34.7827148,13.605957 35.0134277,14.1589355 35.4748535,14.6008301 C35.9362793,15.0427246 36.5307617,15.2636719 37.2583008,15.2636719 Z M37.565918,14.1430664 C37.1850586,14.1430664 36.8554688,14.0332031 36.5771484,13.8134766 C36.2988281,13.59375 36.159668,13.293457 36.159668,12.9125977 C36.159668,12.409668 36.3623047,12.043457 36.7675781,11.8139648 C37.0068359,11.6772461 37.3657227,11.5771484 37.8442383,11.5136719 L37.8442383,11.5136719 L38.6425781,11.4111328 C38.8867188,11.3818359 39.1357422,11.3330078 39.3896484,11.2646484 C39.6435547,11.1962891 39.8510742,11.1108398 40.012207,11.0083008 L40.012207,11.0083008 L40.012207,12.0703125 C40.012207,12.8808594 39.6459961,13.4643555 38.9135742,13.8208008 C38.4790039,14.0356445 38.0297852,14.1430664 37.565918,14.1430664 Z M51.0644531,15.2490234 C52.1289062,15.2490234 52.9614258,14.8388672 53.5620117,14.0185547 C54.1625977,13.1982422 54.4628906,12.1679688 54.4628906,10.9277344 C54.4628906,9.61914062 54.1589355,8.62915039 53.5510254,7.95776367 C52.9431152,7.28637695 52.1508789,6.95068359 51.1743164,6.95068359 C50.7055664,6.95068359 50.2709961,7.04956055 49.8706055,7.24731445 C49.4702148,7.44506836 49.1259766,7.73193359 48.8378906,8.10791016 L48.8378906,8.10791016 L48.8378906,4.20410156 L47.5561523,4.20410156 L47.5561523,15 L48.7719727,15 L48.7719727,13.996582 C49.050293,14.3725586 49.3115234,14.6459961 49.5556641,14.8168945 C49.9658203,15.1049805 50.46875,15.2490234 51.0644531,15.2490234 Z M50.9838867,14.0844727 C50.0366211,14.0844727 49.3896484,13.6523438 49.0429688,12.7880859 C48.8574219,12.3291016 48.7646484,11.730957 48.7646484,10.9936523 C48.7646484,9.97314453 48.9904785,9.24072266 49.4421387,8.79638672 C49.8937988,8.35205078 50.4199219,8.12988281 51.0205078,8.12988281 C51.7089844,8.12988281 52.2302246,8.40087891 52.5842285,8.94287109 C52.9382324,9.48486328 53.1152344,10.168457 53.1152344,10.9936523 C53.1152344,11.9213867 52.9382324,12.668457 52.5842285,13.2348633 C52.2302246,13.8012695 51.6967773,14.0844727 50.9838867,14.0844727 Z M58.5864258,15.2124023 C59.3041992,15.2124023 59.9145508,15.0073242 60.4174805,14.597168 C60.6713867,14.3920898 60.8837891,14.140625 61.0546875,13.8427734 L61.0546875,13.8427734 L61.0400391,15 L62.2851562,15 L62.2851562,7.15576172 L60.9667969,7.15576172 L60.9667969,11.0083008 C60.9667969,11.7749023 60.8764648,12.3779297 60.6958008,12.8173828 C60.3637695,13.6376953 59.7387695,14.0478516 58.8208008,14.0478516 C58.1811523,14.0478516 57.7441406,13.8134766 57.5097656,13.3447266 C57.3828125,13.0908203 57.3193359,12.7636719 57.3193359,12.3632812 L57.3193359,12.3632812 L57.3193359,7.15576172 L55.9716797,7.15576172 L55.9716797,12.487793 C55.9716797,13.1567383 56.081543,13.6914062 56.3012695,14.0917969 C56.706543,14.8388672 57.4682617,15.2124023 58.5864258,15.2124023 Z M65.6616211,15 L65.6616211,10.8911133 C65.6616211,10.378418 65.6945801,9.98413086 65.760498,9.70825195 C65.826416,9.43237305 65.9692383,9.16503906 66.1889648,8.90625 C66.4624023,8.58398438 66.7797852,8.36914062 67.1411133,8.26171875 C67.3413086,8.19824219 67.5976562,8.16650391 67.9101562,8.16650391 C68.5253906,8.16650391 68.9501953,8.41064453 69.1845703,8.89892578 C69.3261719,9.19189453 69.3969727,9.57763672 69.3969727,10.0561523 L69.3969727,10.0561523 L69.3969727,15 L70.7373047,15 L70.7373047,9.96826172 C70.7373047,9.17724609 70.6298828,8.56933594 70.4150391,8.14453125 C70.0244141,7.36816406 69.2724609,6.97998047 68.1591797,6.97998047 C67.6513672,6.97998047 67.1899414,7.08007812 66.7749023,7.28027344 C66.3598633,7.48046875 65.9667969,7.81005859 65.5957031,8.26904297 L65.5957031,8.26904297 L65.5957031,7.15576172 L64.3432617,7.15576172 L64.3432617,15 L65.6616211,15 Z M75.3588867,15.2783203 C75.9008789,15.2783203 76.3818359,15.1708984 76.8017578,14.9560547 C77.2216797,14.7412109 77.5854492,14.3920898 77.8930664,13.9086914 L77.8930664,13.9086914 L77.8930664,15 L79.0795898,15 L79.0795898,4.20410156 L77.8125,4.20410156 L77.8125,8.16650391 C77.5146484,7.80029297 77.2485352,7.54394531 77.0141602,7.39746094 C76.6088867,7.14355469 76.105957,7.01660156 75.5053711,7.01660156 C74.4213867,7.01660156 73.5876465,7.43530273 73.0041504,8.27270508 C72.4206543,9.11010742 72.1289062,10.1000977 72.1289062,11.2426758 C72.1289062,12.4633789 72.4487305,13.4411621 73.0883789,14.1760254 C73.7280273,14.9108887 74.4848633,15.2783203 75.3588867,15.2783203 Z M75.769043,14.128418 C74.9829102,14.128418 74.4116211,13.8452148 74.0551758,13.2788086 C73.6987305,12.7124023 73.5205078,12.0092773 73.5205078,11.1694336 C73.5205078,10.1831055 73.7268066,9.43603516 74.1394043,8.92822266 C74.552002,8.42041016 75.090332,8.16650391 75.7543945,8.16650391 C76.3500977,8.16650391 76.8505859,8.40454102 77.2558594,8.88061523 C77.6611328,9.35668945 77.8637695,10.090332 77.8637695,11.081543 C77.8637695,12.0629883 77.6672363,12.8161621 77.2741699,13.3410645 C76.8811035,13.8659668 76.3793945,14.128418 75.769043,14.128418 Z M82.3828125,15 L82.3828125,4.24072266 L81.0644531,4.24072266 L81.0644531,15 L82.3828125,15 Z M87.421875,15.2783203 C87.8222656,15.2783203 88.1811523,15.2392578 88.4985352,15.1611328 C89.0893555,15.0244141 89.5849609,14.7607422 89.9853516,14.3701172 C90.2246094,14.1455078 90.4406738,13.8562012 90.6335449,13.5021973 C90.826416,13.1481934 90.9399414,12.8271484 90.9741211,12.5390625 L90.9741211,12.5390625 L89.6777344,12.5390625 C89.5800781,12.8857422 89.4140625,13.190918 89.1796875,13.4545898 C88.7695312,13.9086914 88.2202148,14.1357422 87.5317383,14.1357422 C86.7944336,14.1357422 86.25,13.8952637 85.8984375,13.4143066 C85.546875,12.9333496 85.3588867,12.2949219 85.3344727,11.4990234 L85.3344727,11.4990234 L91.0839844,11.4990234 C91.0839844,10.7080078 91.0449219,10.1318359 90.9667969,9.77050781 C90.8789062,9.24316406 90.703125,8.78173828 90.4394531,8.38623047 C90.1660156,7.97119141 89.7680664,7.63305664 89.2456055,7.37182617 C88.7231445,7.1105957 88.1835938,6.97998047 87.6269531,6.97998047 C86.5234375,6.97998047 85.6298828,7.37304688 84.9462891,8.15917969 C84.2626953,8.9453125 83.9208984,9.96826172 83.9208984,11.2280273 C83.9208984,12.5073242 84.2602539,13.5021973 84.9389648,14.2126465 C85.6176758,14.9230957 86.4453125,15.2783203 87.421875,15.2783203 Z M89.7290039,10.4516602 L85.3710938,10.4516602 C85.3955078,9.77783203 85.612793,9.22241211 86.0229492,8.78540039 C86.4331055,8.34838867 86.940918,8.12988281 87.5463867,8.12988281 C88.3911133,8.12988281 88.9941406,8.44726562 89.3554688,9.08203125 C89.5507812,9.42382812 89.675293,9.88037109 89.7290039,10.4516602 L89.7290039,10.4516602 Z M94.0576172,15 L94.0576172,10.4882812 C94.0576172,9.93164062 94.2358398,9.43969727 94.5922852,9.01245117 C94.9487305,8.58520508 95.4589844,8.37158203 96.1230469,8.37158203 C96.2011719,8.37158203 96.2731934,8.37402344 96.3391113,8.37890625 C96.4050293,8.38378906 96.4770508,8.39355469 96.5551758,8.40820312 L96.5551758,8.40820312 L96.5551758,7.01660156 C96.4135742,7.00195312 96.3134766,6.9921875 96.2548828,6.98730469 C96.1962891,6.98242188 96.1547852,6.97998047 96.1303711,6.97998047 C95.6079102,6.97998047 95.1464844,7.16918945 94.7460938,7.54760742 C94.3457031,7.92602539 94.0942383,8.24707031 93.9916992,8.51074219 L93.9916992,8.51074219 L93.9916992,7.15576172 L92.7392578,7.15576172 L92.7392578,15 L94.0576172,15 Z" id="vanilla-bundler-outlines"></path>
            </g>
        </g>
    </g>
</svg>